<?xml version="1.0" encoding="utf-8" ?><svg xmlns="http://www.w3.org/2000/svg" xmlns:xlink="http://www.w3.org/1999/xlink" width="820" height="900" viewBox="0 0 820 900"><path fill="#007BFE" transform="matrix(0.998552 -0.00131921 0.00131888 0.998798 0 1.08176)" d="M19.3033 117.226C18.4022 111.423 18.2811 105.653 18.1652 99.7928C17.751 78.8605 21.667 63.8614 34.1739 46.8104C48.237 27.7675 69.379 15.1937 92.8251 11.9287C109.008 9.55723 126.147 11.605 141.101 18.3584C147.309 21.1623 153.193 24.8414 159.097 28.2309L188.387 45.148L286.814 102.303L550.982 255.217L704.947 344.249L748.491 369.344C755.922 373.641 763.94 377.581 770.813 382.727C787.078 394.908 801.696 414.718 804.405 435.214C805.149 440.836 804.982 446.639 805.002 452.302C805.022 458.341 805.199 464.478 804.42 470.479C802.81 482.884 796.58 495.968 788.94 505.796C782.781 513.719 776.017 519.917 767.851 525.717C758.556 532.319 747.827 537.75 737.869 543.335C726.279 549.836 714.795 556.622 703.278 563.26L665.482 585.205C659.12 588.898 652.643 593.2 645.964 596.27C632.105 603.353 618.664 611.631 605.185 619.422C599.217 622.871 593.008 627 586.664 629.625C584.069 632.903 543.292 655.512 536.893 659.143L424.169 724.406C416.259 728.963 408.373 733.56 400.51 738.197C394.736 741.632 388.73 746.005 382.401 748.251C377.616 752.072 367.59 756.83 361.77 760.168L339.021 773.276C334.502 775.896 329.984 778.771 325.295 781.062C324.089 781.652 322.924 782.002 321.603 782.205L219.586 841.149L191.381 857.459C184.941 861.121 177.68 864.575 171.859 869.17C170.673 870.866 168.833 872.254 167.173 873.477C162.176 877.16 142.536 888.907 136.866 887.454C136.27 887.301 135.574 886.902 134.956 886.855C133.267 886.725 127.314 888.603 125.16 888.936C120.829 889.607 116.487 889.813 112.111 889.815C88.5123 889.827 66.1991 881.14 49.5134 864.292C34.9873 849.724 26.0742 830.493 24.3469 809.992C23.6567 801.261 24.0805 792.227 24.0814 783.462L24.0963 742.657L24.0691 589.189L24.0676 539.254C24.0676 529.439 23.7982 519.541 24.3183 509.74C23.7963 501.409 22.4251 493.2 22.1617 484.827C21.4692 462.807 22.4134 440.709 21.8358 418.674C21.246 415.999 22.1006 412.324 21.979 409.491C21.8215 405.821 21.2617 402.197 21.1525 398.511C20.6998 383.226 21.078 367.829 21.077 352.53L21.0782 258.55C21.0796 241.678 20.7168 224.717 21.1913 207.855C21.3117 200.592 19.4511 193.127 19.261 185.771C18.6724 162.989 18.9268 140.016 19.3033 117.226Z"/><path fill="#0AF15D" transform="matrix(0.998552 -0.00131921 0.00131888 0.998798 0 1.08176)" d="M21.1913 207.855C21.2966 208.044 21.4056 208.231 21.5073 208.422C23.0703 211.358 23.2748 215.976 24.2955 219.253C28.4776 232.505 35.6559 244.615 45.2736 254.645C63.0455 272.974 85.7292 284.746 107.631 297.333L160.962 328.027L423.108 479.261L505.659 526.914C520.792 535.629 537.386 544.144 551.679 553.916C561.318 560.507 570.311 568.271 577.195 577.765C585.92 589.8 590.621 604.469 587.987 619.314C587.492 622.105 585.699 627.024 586.664 629.625C584.069 632.903 543.292 655.512 536.893 659.143L424.169 724.406C416.259 728.963 408.373 733.56 400.51 738.197C394.736 741.632 388.73 746.005 382.401 748.251C377.616 752.072 367.59 756.83 361.77 760.168L339.021 773.276C334.502 775.896 329.984 778.771 325.295 781.062C324.089 781.652 322.924 782.002 321.603 782.205L219.586 841.149L191.381 857.459C184.941 861.121 177.68 864.575 171.859 869.17C170.673 870.866 168.833 872.254 167.173 873.477C162.176 877.16 142.536 888.907 136.866 887.454C136.27 887.301 135.574 886.902 134.956 886.855C133.267 886.725 127.314 888.603 125.16 888.936C120.829 889.607 116.487 889.813 112.111 889.815C88.5123 889.827 66.1991 881.14 49.5134 864.292C34.9873 849.724 26.0742 830.493 24.3469 809.992C23.6567 801.261 24.0805 792.227 24.0814 783.462L24.0963 742.657L24.0691 589.189L24.0676 539.254C24.0676 529.439 23.7982 519.541 24.3183 509.74C23.7963 501.409 22.4251 493.2 22.1617 484.827C21.4692 462.807 22.4134 440.709 21.8358 418.674C21.246 415.999 22.1006 412.324 21.979 409.491C21.8215 405.821 21.2617 402.197 21.1525 398.511C20.6998 383.226 21.078 367.829 21.077 352.53L21.0782 258.55C21.0796 241.678 20.7168 224.717 21.1913 207.855Z"/><path fill="#EF0B5C" transform="matrix(0.998552 -0.00131921 0.00131888 0.998798 0 1.08176)" d="M24.3183 509.74L24.5716 510.402C26.0866 514.448 26.7361 518.899 28.0664 523.032C31.753 534.485 38.517 545.296 46.4989 554.233C62.9628 572.668 86.0282 584.776 107.179 596.958L148.75 620.883L246.524 677.203C269.284 690.313 298.012 703.818 314.02 725.106C327.447 742.962 329.329 761.563 321.603 782.205L219.586 841.149L191.381 857.459C184.941 861.121 177.68 864.575 171.859 869.17C170.673 870.866 168.833 872.254 167.173 873.477C162.176 877.16 142.536 888.907 136.866 887.454C136.27 887.301 135.574 886.902 134.956 886.855C133.267 886.725 127.314 888.603 125.16 888.936C120.829 889.607 116.487 889.813 112.111 889.815C88.5123 889.827 66.1991 881.14 49.5134 864.292C34.9873 849.724 26.0742 830.493 24.3469 809.992C23.6567 801.261 24.0805 792.227 24.0814 783.462L24.0963 742.657L24.0691 589.189L24.0676 539.254C24.0676 529.439 23.7982 519.541 24.3183 509.74Z"/><path fill="#9E0D58" transform="matrix(0.998552 -0.00131921 0.00131888 0.998798 0 1.08176)" d="M24.0963 742.657C29.342 744.091 38.2578 750.248 43.3663 753.203L81.6717 775.378L126.686 801.439C135.051 806.284 144.014 810.857 151.91 816.432C158.485 821.075 165.549 826.985 169.564 834.085C175.22 844.088 176.402 852.836 173.366 863.947C172.892 865.679 172.087 867.394 171.859 869.17C170.673 870.866 168.833 872.254 167.173 873.477C162.176 877.16 142.536 888.907 136.866 887.454C136.27 887.301 135.574 886.902 134.956 886.855C133.267 886.725 127.314 888.603 125.16 888.936C120.829 889.607 116.487 889.813 112.111 889.815C88.5123 889.827 66.1991 881.14 49.5134 864.292C34.9873 849.724 26.0742 830.493 24.3469 809.992C23.6567 801.261 24.0805 792.227 24.0814 783.462L24.0963 742.657Z"/><path fill="#24AA06" transform="matrix(0.998552 -0.00131921 0.00131888 0.998798 0 1.08176)" d="M21.8358 418.674L23.0763 419.129C25.0444 423.523 25.3165 429.446 26.7191 434.167C31.5467 450.169 39.9469 464.864 51.2854 477.143C70.1581 497.718 94.303 510.452 118.164 524.211L168.75 553.39L299.925 629.216L327.946 645.372C344.142 654.72 360.284 664.122 372.596 678.538C387.751 696.28 393.882 719.232 385.349 741.478C384.468 743.776 383.431 746.018 382.401 748.251C377.616 752.072 367.59 756.83 361.77 760.168L339.021 773.276C334.502 775.896 329.984 778.771 325.295 781.062C324.089 781.652 322.924 782.002 321.603 782.205C329.329 761.563 327.447 742.962 314.02 725.106C298.012 703.818 269.284 690.313 246.524 677.203L148.75 620.883L107.179 596.958C86.0282 584.776 62.9628 572.668 46.4989 554.233C38.517 545.296 31.753 534.485 28.0664 523.032C26.7361 518.899 26.0866 514.448 24.5716 510.402L24.3183 509.74C23.7963 501.409 22.4251 493.2 22.1617 484.827C21.4692 462.807 22.4134 440.709 21.8358 418.674Z"/><path fill="#09517E" transform="matrix(0.998552 -0.00131921 0.00131888 0.998798 0 1.08176)" d="M19.3033 117.226C19.3594 117.37 19.4172 117.513 19.4716 117.658C21.5619 123.212 22.3724 129.249 24.2372 134.896C30.3482 153.401 41.2735 169.475 55.0052 183.172C72.8701 200.992 95.4151 212.691 117.049 225.2L174.762 258.66L466.302 427.265L558.836 480.866L588.666 498.157C595.585 502.172 602.65 506.072 609.257 510.59C619.242 517.417 629.091 525.874 636.224 535.679C646.343 549.59 651.955 566.526 648.55 583.73C648.013 586.444 645.032 593.96 645.964 596.27C632.105 603.353 618.664 611.631 605.185 619.422C599.217 622.871 593.008 627 586.664 629.625C585.699 627.024 587.492 622.105 587.987 619.314C590.621 604.469 585.92 589.8 577.195 577.765C570.311 568.271 561.318 560.507 551.679 553.916C537.386 544.144 520.792 535.629 505.659 526.914L423.108 479.261L160.962 328.027L107.631 297.333C85.7292 284.746 63.0455 272.974 45.2736 254.645C35.6559 244.615 28.4776 232.505 24.2955 219.253C23.2748 215.976 23.0703 211.358 21.5073 208.422C21.4056 208.231 21.2966 208.044 21.1913 207.855C21.3117 200.592 19.4511 193.127 19.261 185.771C18.6724 162.989 18.9268 140.016 19.3033 117.226Z"/></svg>